<svg class="icon" width="100" height="100" version="1.1" viewBox="0 0 100 100" xmlns="http://www.w3.org/2000/svg">
 <g fill="none" stroke="#000" stroke-linecap="round" stroke-linejoin="round" stroke-width="2">
  <path transform="matrix(1.8632 0 0 1.8632 0 12.418)" d="m47.381 22.799c0 3.5074-2.8428 6.3503-6.3503 6.3503-3.5074 0-6.3503-2.8428-6.3503-6.3503 0-3.5053 2.8428-6.3482 6.3503-6.3482 3.5074 0 6.3503 2.8428 6.3503 6.3482"/>
  <path transform="matrix(1.8632 0 0 1.8632 0 12.418)" d="m44.489 28.22c2.3711 0.73796 4.4445 2.216 5.9163 4.216s2.2663 4.4194 2.2642 6.9037h-23.279c0-1.1007 0.15933-2.195 0.46961-3.2496l-2.7401 1.0503c-0.23061 0.085956-0.47381 0.12998-0.71909 0.12998-0.67926 0-1.3124-0.34173-1.6814-0.91197l-5.671-8.7298h0.002097c-0.60588-0.93084-0.34173-2.1741 0.58911-2.7799 0.93084-0.60379 2.1762-0.33963 2.7799 0.59121l4.7905 7.3608 6.4802-2.4906c1.1489-0.94342 2.4697-1.6562 3.889-2.1007"/>
  <path transform="matrix(1.8632 0 0 1.8632 0 12.418)" d="m21.099 30.78h-17.33v-29.781h38.2v15.52"/>
  <path transform="matrix(1.8632 0 0 1.8632 0 12.418)" d="m12.08 14.52 6.65 10.011"/>
  <path transform="matrix(1.8632 0 0 1.8632 0 12.418)" d="m19.481 6.6791h15.2"/>
  <path transform="matrix(1.8632 0 0 1.8632 0 12.418)" d="m19.481 12h15.2"/>
  <path transform="matrix(1.8632 0 0 1.8632 0 12.418)" d="m19.481 17.39h12"/>
  <path transform="matrix(1.8632 0 0 1.8632 0 12.418)" d="m23.77 36.189h-22.77"/>
 </g>
</svg>
