<svg class="icon" width="100" height="100" version="1.1" viewBox="0 0 100 100" xmlns="http://www.w3.org/2000/svg">
  <path d="m50 12.5c-14.648 0-26.562 11.914-26.562 26.562s11.914 26.562 26.562 26.562 26.562-11.914 26.562-26.562-11.914-26.562-26.562-26.562zm-15.883 43.75h31.762c-4.1797 3.8672-9.75 6.25-15.883 6.25-6.1289 0-11.695-2.3828-15.879-6.25zm9.9844-10.527c0.82813 2.4766 3.1445 4.2773 5.8984 4.2773s5.0703-1.8008 5.8984-4.2773l4.7617 1.3594c2.0039 0.57422 3.4023 2.4258 3.4023 4.5078v1.5352h-28.125v-1.5352c0-2.082 1.3984-3.9375 3.3984-4.5078zm2.7734-2.4336c0.99219 0.29688 2.0391 0.46094 3.125 0.46094s2.1328-0.16406 3.125-0.46094v0.46094c0 1.7227-1.4023 3.125-3.125 3.125s-3.125-1.4023-3.125-3.125zm3.125-2.6641c-4.3086 0-7.8125-3.5039-7.8125-7.8125v-3.125c0-4.3086 3.5039-7.8125 7.8125-7.8125s7.8125 3.5039 7.8125 7.8125v3.125c0 4.3086-3.5039 7.8125-7.8125 7.8125zm17.188 14.32v-3.3516c0-3.4688-2.3281-6.5586-5.668-7.5156l-5.2695-1.5078v-0.79687c2.8281-1.9805 4.6875-5.2578 4.6875-8.9609v-3.125c0-6.0312-4.9062-10.938-10.938-10.938s-10.938 4.9062-10.938 10.938v3.125c0 3.707 1.8594 6.9844 4.6875 8.9609v0.79687l-5.2734 1.5078c-3.3359 0.95312-5.6641 4.043-5.6641 7.5117v3.3516c-3.8672-4.1797-6.25-9.75-6.25-15.883 0-12.922 10.516-23.438 23.438-23.438s23.438 10.516 23.438 23.438c0 6.1328-2.3828 11.703-6.25 15.887z"/>
  <path d="m92.77 86.266-5.2695-1.5078v-0.79687c2.8281-1.9805 4.6875-5.2578 4.6875-8.9609v-3.125c0-5.707-4.3984-10.402-9.9844-10.891l-3.4062-6.2539c1.1016-2.0234 1.9883-4.1641 2.6445-6.3906l6.0586-1.8789v-14.801l-6.0586-1.8828c-0.65625-2.2227-1.543-4.3633-2.6445-6.3906l2.957-5.6133-10.465-10.465-5.6133 2.9531c-2.0234-1.1016-4.1641-1.9883-6.3906-2.6445l-1.8867-6.0547h-14.801l-1.8789 6.0586c-2.2266 0.65625-4.3672 1.543-6.3906 2.6445l-5.6133-2.9531-10.465 10.465 2.957 5.6133c-1.1016 2.0273-1.9922 4.168-2.6445 6.3906l-6.0625 1.8828v14.801l6.0586 1.8828c0.65625 2.2227 1.5391 4.3633 2.6445 6.3906l-3.4062 6.2539c-5.5859 0.48047-9.9844 5.1758-9.9844 10.883v3.125c0 3.707 1.8594 6.9844 4.6875 8.9609v0.79687l-5.2734 1.5078c-3.3359 0.95312-5.6641 4.043-5.6641 7.5117v4.6602h34.375v-4.6602c0-3.4688-2.3281-6.5586-5.668-7.5156l-5.2695-1.5039v-0.79687c2.8281-1.9805 4.6875-5.2578 4.6875-8.9609v-3.125c0-0.53125-0.050781-1.0469-0.125-1.5547l4.7656-2.4609c2.0273 1.1055 4.168 1.9922 6.3906 2.6445l1.8828 6.0586h14.801l1.8828-6.0586c2.2227-0.65625 4.3633-1.5391 6.3906-2.6445l4.7266 2.4844 0.03125 0.011719c-0.074219 0.49609-0.12109 1.0039-0.12109 1.5195v3.125c0 3.707 1.8594 6.9844 4.6875 8.9609v0.79687l-5.2734 1.5078c-3.3359 0.95312-5.6641 4.043-5.6641 7.5117v4.6602h34.375v-4.6602c0-3.4688-2.3281-6.5586-5.668-7.5117zm-14.645-0.78906c0.99219 0.29688 2.0391 0.46094 3.125 0.46094s2.1328-0.16406 3.125-0.46094v0.46094c0 1.7227-1.4023 3.125-3.125 3.125s-3.125-1.4023-3.125-3.125zm-62.5 0c0.99219 0.29688 2.0391 0.46094 3.125 0.46094s2.1328-0.16406 3.125-0.46094v0.46094c0 1.7227-1.4023 3.125-3.125 3.125s-3.125-1.4023-3.125-3.125zm17.188 8.3008v1.5352h-28.125v-1.5352c0-2.082 1.3984-3.9375 3.3984-4.5078l4.7617-1.3594c0.83203 2.4766 3.1484 4.2773 5.9023 4.2773s5.0703-1.8008 5.8984-4.2773l4.7617 1.3594c2.0039 0.57422 3.4023 2.4258 3.4023 4.5078zm-6.25-18.777c0 4.3086-3.5039 7.8125-7.8125 7.8125s-7.8125-3.5039-7.8125-7.8125v-3.125c0-4.3086 3.5039-7.8125 7.8125-7.8125s7.8125 3.5039 7.8125 7.8125zm40.703-9.8359-1.168-1.1641-1.043 0.61719c-2.375 1.4023-4.9453 2.4648-7.6328 3.1602l-1.1719 0.30078v1.6484l-1.1484 3.7109h-10.199l-1.1523-3.7109v-1.6484l-1.1719-0.30078c-2.6875-0.69531-5.2578-1.7578-7.6328-3.1602l-1.043-0.61719-1.168 1.1641-4.0625 2.1406c-1.3984-3.0234-4.1367-5.3047-7.4531-6.0742l2.668-4.8945 1.1719-1.1758-0.61719-1.043c-1.4023-2.375-2.4648-4.9414-3.1602-7.6328l-0.29688-1.1719h-1.6484l-3.7109-1.1484v-10.199l3.7109-1.1523h1.6484l0.30078-1.1719c0.69531-2.6875 1.7578-5.2578 3.1602-7.6328l0.61719-1.043-1.1641-1.168-1.8086-3.4375 7.2109-7.2109 3.4375 1.8086 1.168 1.168 1.043-0.61719c2.3672-1.3984 4.9375-2.4609 7.6328-3.1602l1.168-0.30078v-1.6484l1.1484-3.7109h10.199l1.1523 3.7109v1.6484l1.1719 0.30078c2.6953 0.69531 5.2656 1.7617 7.6328 3.1602l1.043 0.61719 1.168-1.168 3.4375-1.8086 7.2109 7.2109-1.8086 3.4375-1.1641 1.168 0.61719 1.043c1.4023 2.375 2.4648 4.9453 3.1602 7.6328l0.29688 1.1719h1.6484l3.7109 1.1484v10.199l-3.7109 1.1523h-1.6484l-0.30078 1.1719c-0.69531 2.6914-1.7578 5.2578-3.1602 7.6328l-0.61719 1.043 1.1719 1.1758 2.668 4.8945c-3.3164 0.76953-6.0508 3.0469-7.4531 6.0742zm6.1719 9.8359v-3.125c0-4.3086 3.5039-7.8125 7.8125-7.8125s7.8125 3.5039 7.8125 7.8125v3.125c0 4.3086-3.5039 7.8125-7.8125 7.8125s-7.8125-3.5039-7.8125-7.8125zm21.875 20.312h-28.125v-1.5352c0-2.082 1.3984-3.9375 3.3984-4.5078l4.7617-1.3594c0.83203 2.4766 3.1484 4.2773 5.9023 4.2773s5.0703-1.8008 5.8984-4.2773l4.7617 1.3594c2.0039 0.57422 3.4023 2.4258 3.4023 4.5078z"/>
</svg>