<svg class="icon" width="100" height="100" version="1.1" viewBox="0 0 100 100" xmlns="http://www.w3.org/2000/svg">
 <path d="m51.148 15.719c9.8789 0 18.828 4.0117 25.301 10.48 6.4805 6.4688 10.48 15.422 10.48 25.301s-4.0117 18.828-10.48 25.301c-6.4688 6.4805-15.422 10.48-25.301 10.48-9.8789 0-18.828-4.0117-25.301-10.48-6.4805-6.4688-10.48-15.422-10.48-25.301 0-2.8789 0.35156-5.6992 1-8.4102 0.67187-2.7812 1.6602-5.4414 2.9414-7.9219 0.25-0.48828 0.85156-0.67969 1.3398-0.42969 0.48828 0.25 0.67969 0.85156 0.42969 1.3398-1.2109 2.3516-2.1406 4.8516-2.7812 7.4688-0.60938 2.5391-0.94141 5.1992-0.94141 7.9492 0 9.3281 3.7812 17.77 9.8906 23.891 6.1094 6.1094 14.559 9.8906 23.891 9.8906 9.3281 0 17.77-3.7812 23.891-9.8906 6.1094-6.1094 9.8906-14.559 9.8906-23.891 0-9.3281-3.7812-17.77-9.8906-23.891-6.1094-6.1094-14.559-9.8906-23.891-9.8906-5.2383 0-10.191 1.1914-14.602 3.3086-4.5898 2.1992-8.6016 5.4102-11.762 9.3516-0.33984 0.42969-0.96875 0.5-1.3984 0.14844-0.42969-0.33984-0.5-0.96875-0.14844-1.3984 3.3398-4.1602 7.5898-7.5586 12.461-9.8906 4.6797-2.25 9.9297-3.5117 15.461-3.5117zm9.3203 16.359c1.3789 0 2.4883 1.1211 2.4883 2.4883 0 1.3789-1.1211 2.4883-2.4883 2.4883l-7.6992 0.019531v11.738h1.9297c6.0195 0 10.941 4.9219 10.941 10.941 0 6.0273-4.9219 10.945-10.941 10.945h-1.9297v4.6602c0 1.3789-1.1211 2.5-2.5 2.5-1.3789 0-2.5-1.1211-2.5-2.5v-4.6602h-5.9805c-1.3789 0-2.5-1.1211-2.5-2.5 0-1.3789 1.1211-2.5 2.5-2.5h5.9805v-11.719h-0.17969c-3.0117 0-5.7383-1.2305-7.7305-3.2109-1.9805-1.9805-3.2109-4.7188-3.2109-7.7305 0-3.0117 1.2305-5.7383 3.2109-7.7188 1.9688-1.9688 4.7109-3.1992 7.7305-3.2109l0.17969-4.4609c0-1.3789 1.1211-2.5 2.5-2.5 1.3789 0 2.5 1.1211 2.5 2.5v4.4492zm-12.699 5.0117h-0.17969c-1.6211 0-3.1094 0.67969-4.1914 1.7617-1.0703 1.0703-1.7383 2.5586-1.7383 4.1797 0 1.6289 0.67188 3.1094 1.75 4.1914 1.2109 1.2109 2.6797 1.75 4.3711 1.75v-11.883zm5 28.602h1.9297c3.2617 0 5.9414-2.6797 5.9414-5.9414s-2.6797-5.9414-5.9414-5.9414h-1.9297zm-1.6211-57.691c12.012 0 22.891 4.8711 30.762 12.738 7.8711 7.8711 12.738 18.75 12.738 30.762s-4.8711 22.891-12.738 30.762c-7.8711 7.8672-18.75 12.738-30.762 12.738-12.012 0-22.891-4.8711-30.762-12.738-7.8672-7.8711-12.738-18.75-12.738-30.762s4.8711-22.891 12.738-30.762c7.875-7.8672 18.754-12.738 30.762-12.738zm28.641 14.859c-7.3281-7.3281-17.449-11.859-28.641-11.859-11.18 0-21.309 4.5312-28.641 11.859-7.3281 7.332-11.859 17.449-11.859 28.641 0 11.18 4.5312 21.309 11.859 28.641 7.332 7.3281 17.453 11.859 28.641 11.859 11.18 0 21.309-4.5312 28.641-11.859 7.3281-7.3281 11.859-17.449 11.859-28.641 0-11.18-4.5273-21.309-11.859-28.641z"/>
</svg>