<svg class="icon" height="100" width="100" version="1.1" viewBox="0 0 100 100" xml:space="preserve" xmlns="http://www.w3.org/2000/svg">
  <path d="m43.75 34.375h-34.375c-1.7266 0-3.125-1.3984-3.125-3.125v-21.875c0-1.7266 1.3984-3.125 3.125-3.125h34.375c0.82812 0 1.625 0.32812 2.2109 0.91406 0.58594 0.58594 0.91406 1.3828 0.91406 2.2109v21.875c0 0.82812-0.32812 1.625-0.91406 2.2109-0.58594 0.58594-1.3828 0.91406-2.2109 0.91406zm-31.25-6.25h28.125v-15.625h-28.125z"/>
  <path d="m43.75 93.75h-34.375c-1.7266 0-3.125-1.3984-3.125-3.125v-46.875c0-1.7266 1.3984-3.125 3.125-3.125h34.375c0.82812 0 1.625 0.32812 2.2109 0.91406 0.58594 0.58594 0.91406 1.3828 0.91406 2.2109v46.875c0 0.82812-0.32812 1.625-0.91406 2.2109-0.58594 0.58594-1.3828 0.91406-2.2109 0.91406zm-31.25-6.25h28.125v-40.625h-28.125z"/>
  <path d="m90.625 93.75h-34.375c-1.7266 0-3.125-1.3984-3.125-3.125v-21.875c0-1.7266 1.3984-3.125 3.125-3.125h34.375c0.82812 0 1.625 0.32812 2.2109 0.91406 0.58594 0.58594 0.91406 1.3828 0.91406 2.2109v21.875c0 0.82812-0.32812 1.625-0.91406 2.2109-0.58594 0.58594-1.3828 0.91406-2.2109 0.91406zm-31.25-6.25h28.125v-15.625h-28.125z"/>
  <path d="m90.625 59.375h-34.375c-1.7266 0-3.125-1.3984-3.125-3.125v-46.875c0-1.7266 1.3984-3.125 3.125-3.125h34.375c0.82812 0 1.625 0.32812 2.2109 0.91406 0.58594 0.58594 0.91406 1.3828 0.91406 2.2109v46.875c0 0.82812-0.32812 1.625-0.91406 2.2109-0.58594 0.58594-1.3828 0.91406-2.2109 0.91406zm-31.25-6.25h28.125v-40.625h-28.125z"/>
</svg>