<svg class="icon" width="100" height="100" version="1.1" viewBox="0 0 100 100" xmlns="http://www.w3.org/2000/svg">
 <path d="m93.75 4.168v4.168l-50.359-0.003907-16.344 85.809c-0.17188 0.90234-0.91797 1.5859-1.832 1.6836-0.074219 0.003906-0.14453 0.007812-0.21484 0.007812-0.83594 0-1.5977-0.5-1.9219-1.2812l-9.0625-21.754-6.1367 7.6719-3.2539-2.6055 8.332-10.418c0.46094-0.57422 1.1797-0.87109 1.918-0.76172 0.72656 0.10156 1.3477 0.58203 1.6328 1.2617l7.7461 18.59 15.367-80.676c0.1875-0.98438 1.043-1.6914 2.0469-1.6914zm-36.027 41.055 11.027-11.027 11.027 11.027 2.9453-2.9453-11.027-11.027 11.027-11.027-2.9453-2.9453-11.027 11.027-11.027-11.027-2.9453 2.9453 11.027 11.027-11.027 11.027zm10.934 35.102-10.645-16.852-3.5234 2.2266 11.68 18.496-5.4219 8.4336 3.5039 2.2539 18.75-29.168-3.5039-2.2539zm-20.738-24.074h41.668v-4.168h-41.668z"/>
</svg>
