<svg class="icon" width="100" height="100" version="1.1" viewBox="0 0 100 100" xmlns="http://www.w3.org/2000/svg">
 <path d="m25.004 17c-2.2422 0-4.3828 0.80859-6.0664 2.1875-1.6797 1.3789-2.9375 3.4297-2.9375 5.8125v50c0 2.3828 1.2578 4.4336 2.9375 5.8125s3.8203 2.1875 6.0664 2.1875h30.016c2.2422 0 4.3828-0.80859 6.0664-2.1875 1.6797-1.3789 2.9375-3.4297 2.9375-5.8125v-16c0.015624-1.0547-0.94531-2.0273-2-2.0273-1.0586 0-2.0156 0.97266-2 2.0273v16c0 0.99609-0.51953 1.9414-1.4688 2.7188-0.94922 0.77734-2.293 1.2812-3.5312 1.2812h-22.012c-1.2383 0-2.582-0.50391-3.5312-1.2812s-1.4688-1.7227-1.4688-2.7188v-7c0.023437-1.1328-1.0898-2.1562-2.2188-2.0312-0.98438 0.10938-1.8047 1.043-1.7812 2.0312v7c0 1.4883 0.50391 2.8516 1.2812 4h-0.28125c-1.2383 0-2.582-0.50391-3.5312-1.2812s-1.4688-1.7227-1.4688-2.7188v-50c0-0.99609 0.51953-1.9414 1.4688-2.7188s2.293-1.2812 3.5312-1.2812h0.3125c-0.79297 1.1523-1.3125 2.4961-1.3125 4v35c-0.015625 1.0547 0.94531 2.0273 2 2.0273 1.0586 0 2.0156-0.97266 2-2.0273v-35c0-0.99609 0.51953-1.9414 1.4688-2.7188s2.293-1.2812 3.5312-1.2812h22.012c1.2383 0 2.582 0.50391 3.5312 1.2812 0.94922 0.77734 1.4688 1.7227 1.4688 2.7188v16c-0.015626 1.0547 0.94531 2.0273 2 2.0273 1.0586 0 2.0156-0.97266 2-2.0273v-16c0-2.3828-1.2578-4.4336-2.9375-5.8125-1.6797-1.3789-3.8203-2.1875-6.0664-2.1875h-30.016zm48.805 22.969c-0.75781 0.074219-1.4492 0.61719-1.6992 1.3359s-0.039063 1.5742 0.50781 2.1016l4.5977 4.5938h-38.395c-1.0469 0.050781-1.957 1.0469-1.9062 2.0938 0.050782 1.0469 1.0469 1.957 2.0938 1.9062h38.207l-4.5977 4.5625c-0.76953 0.73047-0.78906 2.1016-0.042969 2.8555 0.74609 0.75391 2.1172 0.75 2.8594-0.011719l8.0039-8c0.75-0.74219 0.75-2.1016 0-2.8438l-8.0039-8c-0.41797-0.42578-1.0312-0.65234-1.625-0.59375z"/>
</svg>