<svg class="icon" width="100" height="100" version="1.1" viewBox="0 0 100 100" xmlns="http://www.w3.org/2000/svg">
 <path d="m17.188 9.375c-0.86328 0-1.5625 0.69922-1.5625 1.5625v78.125c0 0.86328 0.69922 1.5625 1.5625 1.5625h50c0.41406 0 0.8125-0.16406 1.1055-0.45703l12.5-12.5c0.29297-0.29297 0.45703-0.69141 0.45703-1.1055v-65.625c0-0.86328-0.69922-1.5625-1.5625-1.5625zm1.5625 3.125h59.375v62.5h-0.023438-10.914c-0.86328 0-1.5625 0.69922-1.5625 1.5625v10.918 0.019531h-46.875zm10.938 6.25c-2.5703 0-4.6875 2.1172-4.6875 4.6875s2.1172 4.6875 4.6875 4.6875 4.6875-2.1172 4.6875-4.6875-2.1172-4.6875-4.6875-4.6875zm10.938 0v3.125h31.25v-3.125zm-10.938 3.125c0.88281 0 1.5625 0.67969 1.5625 1.5625s-0.67969 1.5625-1.5625 1.5625-1.5625-0.67969-1.5625-1.5625 0.67969-1.5625 1.5625-1.5625zm10.938 3.125v3.125h12.5v-3.125zm-10.938 9.375c-2.5703 0-4.6875 2.1172-4.6875 4.6875s2.1172 4.6875 4.6875 4.6875 4.6875-2.1172 4.6875-4.6875-2.1172-4.6875-4.6875-4.6875zm10.938 0v3.125h31.25v-3.125zm-10.938 3.125c0.88281 0 1.5625 0.67969 1.5625 1.5625s-0.67969 1.5625-1.5625 1.5625-1.5625-0.67969-1.5625-1.5625 0.67969-1.5625 1.5625-1.5625zm10.938 3.125v3.125h6.25v-3.125zm-10.938 9.375c-2.5703 0-4.6875 2.1172-4.6875 4.6875s2.1172 4.6875 4.6875 4.6875 4.6875-2.1172 4.6875-4.6875-2.1172-4.6875-4.6875-4.6875zm10.938 0v3.125h31.25v-3.125zm-10.938 3.125c0.88281 0 1.5625 0.67969 1.5625 1.5625s-0.67969 1.5625-1.5625 1.5625-1.5625-0.67969-1.5625-1.5625 0.67969-1.5625 1.5625-1.5625zm10.938 3.125v3.125h18.75v-3.125zm-10.938 9.375c-2.5703 0-4.6875 2.1172-4.6875 4.6875s2.1172 4.6875 4.6875 4.6875 4.6875-2.1172 4.6875-4.6875-2.1172-4.6875-4.6875-4.6875zm10.938 0v3.125h31.25v-3.125zm-10.938 3.125c0.88281 0 1.5625 0.67969 1.5625 1.5625s-0.67969 1.5625-1.5625 1.5625-1.5625-0.67969-1.5625-1.5625 0.67969-1.5625 1.5625-1.5625zm10.938 3.125v3.125h12.5v-3.125zm28.125 6.25h7.1641l-7.1641 7.1641z"/>
</svg>