<svg class="icon" width="100" height="100" version="1.1" viewBox="0 0 100 100" xmlns="http://www.w3.org/2000/svg">
 <g>
  <path d="m64 40.922l-8.6172 3.3867c-3.0781-3.0781-6.9219-5.2305-11.23-6.4609l-1.3828-9.0781h-12.309l-1.3828 9.0781c-4.3086 1.2305-8.1523 3.5391-11.23 6.4609l-8.6172-3.2305-6.1523 10.617 7.0781 5.8477c-0.61719 1.9961-0.92578 4.1484-0.92578 6.457s0.30859 4.4609 0.76953 6.4609l-7.0781 5.8477 6.1523 10.617 8.6172-3.2305c3.0781 3.0781 6.9219 5.2305 11.23 6.4609l1.3828 9.0781h12.309l1.3828-9.0781c4.3086-1.2305 8.1523-3.5391 11.23-6.4609l8.6172 3.2305 6.1523-10.617-6.918-5.8477c0.46094-2.1523 0.76953-4.3086 0.76953-6.4609 0-2.3086-0.30859-4.4609-0.76953-6.4609l7.0781-5.8477zm-27.539 38.926c-8.7695 0-15.848-7.0781-15.848-15.848s7.0781-15.848 15.848-15.848c8.7695 0 15.848 7.0781 15.848 15.848s-7.0781 15.848-15.848 15.848z"/>
  <path d="m93.078 23.383c0-1.3828-0.15234-2.7695-0.46094-4.1523l4.6172-3.6914-4-6.7695-5.543 2c-2-2-4.4609-3.3828-7.2305-4.1523l-0.92188-5.8477h-7.8477l-0.92188 5.8477c-2.7695 0.76953-5.2305 2.3086-7.2305 4.1523l-5.5391-2.1523-4 6.7695 4.6172 3.6914c-0.30859 1.3828-0.46094 2.7695-0.46094 4.1523 0 1.3828 0.15234 2.7695 0.46094 4.1523l-4.6172 3.6914 4 6.7695 5.5391-2.1523c2 2 4.4609 3.3828 7.2305 4.1523l0.92188 5.8477h7.8477l0.92188-5.8477c2.7695-0.76953 5.2305-2.3086 7.2305-4.1523l5.5391 2.1523 4-6.7695-4.6172-3.6914c0.30859-1.0742 0.46484-2.4609 0.46484-4zm-17.539 10.156c-5.6914 0-10.152-4.6172-10.152-10.152 0-5.6914 4.6172-10.152 10.152-10.152 5.6914 0 10.152 4.6172 10.152 10.152 0 5.6914-4.6133 10.152-10.152 10.152z"/>
 </g>
</svg>