<svg class="icon" width="100" height="100" version="1.1" viewBox="0 0 100 100" xmlns="http://www.w3.org/2000/svg">
 <path d="m45.199 58.816c0.84375 1.7266 1.2695 3.457 0 5.6016 3.5664-2.2695 6.7383-1.9961 9.6016 0-1.0391-1.8359-1.0938-3.7344 0-5.6016-2.8828 1.8906-5.9805 2.3633-9.6016 0zm-27.352 4.7109c-1.7422 1.7422-3.1914 9.3555-3.1914 9.3555 0 6.293 12.836 11.5 29.637 12.477l-7.1289-31.512c-8.1328 2.3555-15.918 6.2852-19.316 9.6797zm64.305 0c-3.3984-3.3945-11.18-7.3203-19.316-9.6797l-7.125 31.512c16.797-0.98047 29.629-6.1836 29.629-12.477 0.007812 0-1.4414-7.6133-3.1914-9.3555zm-32.152-7.2617c9.8516 0 17.836-12.566 17.836-22.902 0-10.34-7.9844-18.727-17.836-18.727s-17.836 8.3828-17.836 18.727c0 10.336 7.9883 22.902 17.836 22.902z"/>
</svg>