<svg class="icon" width="100" height="100" version="1.1" viewBox="0 0 100 100" xmlns="http://www.w3.org/2000/svg">
 <g>
  <path d="m93.504 82.277h-0.027344 0.027344z"/>
  <path d="m93.41 82.277h-0.10938 0.10938z"/>
  <path d="m95.809 28.895c-0.35938-0.26953-0.82422-0.35156-1.2578-0.22266-0.11719 0.035156-11.891 3.5039-22.992 3.5039-10.703 0-19.16 7.4023-21.938 10.16-3.2305-2.6406-13.309-10.16-23.301-10.16-11.949 0-21.242-3.4336-21.332-3.4688-1.1094-0.23047-1.75 0.21484-1.9258 1.332v56.508c0 0.78516 0.63281 1.4219 1.418 1.4258 0.09375 0 9.4453 0.050782 21.379 0.050782 6.5547 0 13.121 0.98828 19.5 2.4531 1.3125 0.30078 2.9922 1.1094 4.3633 1.0625 1.2305 0 2.6602-0.8125 3.8203-1.1328 5.6992-1.5703 11.641-2.3828 17.551-2.3828 11.781 0 23.75-0.050782 23.867-0.050782 0.78516-0.003906 1.4219-0.64062 1.4219-1.4258v-56.508c0-0.45312-0.21484-0.875-0.57422-1.1445zm-69.949 53.426c-9.2148 0-16.891-0.027343-19.945-0.039062v-9.4102c3.3867 1.0703 10.863 3.043 19.945 3.043 7.9492 0 16.398 4.5039 22.461 9.3125-7.0898-1.7656-15.148-2.9062-22.461-2.9062zm22.426-0.61719c-4.168-3.1602-13.199-8.0195-22.422-8.0195-9.5156 0-17.355-2.3281-19.945-3.1914v-37.855c3.4219 1.0508 11.066 3.0117 20.41 3.0117 8.7656 0 18.066 6.7773 21.277 9.3477 0.27734 0.22266 0.51562 0.41797 0.69922 0.57031zm45.246 0.57422h-0.027344-0.027344-0.066406 0.003906-0.12109 0.011719l-22.207 0.042968c-6.5352 0-13.688 1.0703-19.953 2.9219 5.1016-5.0273 12.605-9.332 19.953-9.332 9.3594 0 18.602-2.1484 22.438-3.1562v9.5234zm-1.1523-12.168c0.12891-0.035156 0.29688-0.082031 0.46484-0.125-0.20312 0.050781-0.35547 0.09375-0.46484 0.125zm1.1523-0.3125c-0.066406 0.019531-0.125 0.035156-0.1875 0.050781 0.11719-0.03125 0.1875-0.050781 0.1875-0.050781-3.1016 0.84375-12.836 3.2656-22.438 3.2656-8.918 0-16.281 5.3711-19.945 8.6523v-36.867c0.14844-0.15234 0.34375-0.34766 0.57031-0.57422 2.6016-2.5352 10.379-9.2539 19.84-9.2539 8.9961 0 18.156-2.1172 21.973-3.1172z"/>
 </g>
</svg>
