<svg class="icon" width="100" height="100" version="1.1" viewBox="0 0 100 100" xmlns="http://www.w3.org/2000/svg">
 <g>
  <path d="m70.273 43.078c2.6523-0.56641 5.0977-2.7578 5.4961-7.6172 0.32812-3.9766-0.69141-6.0273-2.1992-7.0703 4.1797-17.043-7.3516-20.379-7.3516-20.379s-8.6172-14.621-25.434-4.3594c-2.1406 1.3047-5.4648 3.8047-7.4453 6.3867-3.1797 3.3828-5.3438 8.8867-5.6836 17.793-2.0547 0.78516-3.668 2.7656-3.2656 7.625 0.42188 5.082 3.0703 7.2422 5.8594 7.6875 3.7656 9.168 11.199 16.727 19.996 16.727 8.8203 0 16.27-7.5938 20.027-16.793zm-20.027 12.516c-10.172 0-18.363-13.812-18.363-25.25 0-1.5664 0.050782-3.0195 0.14844-4.3711 14.879 0.64844 23.68-5.3164 28.469-10.488 4.543 4.5273 6.9023 10.246 8.1094 14.488 0 0.12109 0.003906 0.24219 0.003906 0.36719-0.003906 11.441-8.1914 25.254-18.367 25.254z"/>
  <path d="m44.422 72.887l1.1758-4.875c0.13672-0.5625 0.42578-1.043 0.82031-1.4141-0.12109-0.085937-0.23828-0.17578-0.35547-0.26953l-10.52-8.7109-6.4023 1.4961c-10.844 2.5508-18.48 11.707-18.48 22.211v13.789c0 2.7148 2.4141 4.8789 5.3047 4.8789h27.102l4.1328-23.559c-1.8594-0.019532-3.2188-1.7305-2.7773-3.5469z"/>
  <path d="m70.969 59.117l-6.3164-1.4961-10.508 8.7109c-0.11719 0.09375-0.23047 0.18359-0.35156 0.26953 0.39453 0.37109 0.6875 0.85156 0.82422 1.4141l1.1758 4.875c0.44141 1.8086-0.91797 3.5273-2.7773 3.5547l4.1328 23.559h27.102c2.8906 0 5.0859-2.1641 5.0859-4.8789v-13.789c0.007812-10.512-7.5234-19.668-18.367-22.219z"/>
 </g>
</svg>
